<svg width="131" height="122" viewBox="0 0 131 122" fill="none" xmlns="http://www.w3.org/2000/svg">
<path d="M47.4885 7.43432C73.8573 -4.31397 98.7039 0.0965196 114.896 12.8766C114.053 17.8637 113.751 24.5389 113.856 23.8638C113.938 23.3384 116.181 18.9759 117.385 14.9682C123.136 20.11 127.605 26.3816 130.408 33.3679L86.5579 50.2004C85.0697 40.7586 81.2493 33.6638 67.0054 39.1314C58.9227 42.2342 61.5926 50.6861 66.4458 57.9207L19.3602 75.9952C11.0395 52.2116 19.9362 19.7103 47.4885 7.43432ZM95.3714 36.5032C95.249 35.6347 94.4695 34.4314 92.3301 36.5619C93.2818 37.619 92.7266 38.3754 94.1076 38.5355C95.2124 38.6631 95.4105 37.2337 95.3714 36.5032ZM29.3566 52.0269C29.7432 49.6439 28.6034 46.2651 25.3511 51.2987C26.5571 52.3359 29.0469 53.9333 29.3566 52.0269ZM102.218 20.5244C100.856 20.9358 100.32 19.8175 99.6759 21.2921C99.1607 22.4723 100.476 23.6118 101.198 24.0342C102.083 24.4498 103.526 24.33 102.218 20.5244ZM82.2878 23.0096C82.6376 22.0964 82.4118 20.6655 78.7121 22.2483C79.2218 23.5762 78.1462 24.1926 79.6636 24.7272C80.8784 25.1549 81.9194 23.7606 82.2878 23.0096ZM45.1489 28.6277C45.1489 30.0502 43.9234 30.2408 45.1485 31.2837C46.1293 32.1183 47.6006 31.1888 48.2138 30.6197C48.8676 29.8925 49.1704 28.4759 45.1489 28.6277ZM49.7241 16.1548C48.5782 17.2205 46.648 19.4458 48.0892 19.8201C49.8916 20.2871 52.8909 19.3904 49.7241 16.1548Z" fill="white"/>
<path d="M47.0847 70.55C51.5641 77.2273 57.9042 82.8673 59.3705 82.3059C62.4239 81.1337 68.788 76.1418 67.5553 65.464C67.4522 64.5714 67.3335 63.6907 67.1977 62.8293L111.047 45.9972C111.368 46.7972 111.668 47.6063 111.945 48.4244C121.388 76.3416 98.466 108.718 73.2072 118.414C47.9483 128.11 10.7462 114.99 0.917357 91.0439C0.590921 90.2486 0.28582 89.4412 -3.10402e-05 88.6241L47.0847 70.55ZM63.7746 92.0841C64.0221 93.6292 64.7959 96.4723 65.909 95.4834C67.3006 94.2462 68.2259 91.2541 63.7746 92.0841ZM33.5291 100.46C33.4349 100.932 28.3212 107.422 32.0123 108.15C33.3245 106.941 33.6218 99.9914 33.5291 100.46ZM98.1507 79.6363C97.1734 79.6361 82.2005 75.8731 82.1995 79.6358C85.1295 80.6894 99.1247 79.6364 98.1507 79.6363ZM99.1393 61.3517C97.9457 62.8255 96.8339 62.2514 96.9111 64.1035C96.973 65.5856 98.8969 65.5482 99.8508 65.3443C100.969 65.0022 102.392 63.7251 99.1393 61.3517ZM28.4419 86.902C27.7145 86.4119 26.2993 86.1862 26.4508 89.2008C27.8734 89.2009 28.0636 90.1207 29.1068 89.2012C29.9409 88.4655 29.0109 87.3617 28.4419 86.902Z" fill="white"/>
</svg>
